<mxfile host="app.diagrams.net" modified="2021-01-16T15:12:46.095Z" agent="5.0 (Macintosh; Intel Mac OS X 10_14_6) AppleWebKit/537.36 (KHTML, like Gecko) Chrome/87.0.4280.141 Safari/537.36" etag="PzhE8Yx40TRlJ5NZIxGZ" version="14.1.9" type="github">
  <diagram id="ClZV5P3Ju56pbZ-up05T" name="Page-1">
    <mxGraphModel dx="1210" dy="682" grid="1" gridSize="10" guides="1" tooltips="1" connect="1" arrows="1" fold="1" page="1" pageScale="1" pageWidth="850" pageHeight="1100" math="0" shadow="0">
      <root>
        <mxCell id="0" />
        <mxCell id="1" parent="0" />
        <mxCell id="WXgXPa6lnhgTiTKDWKVF-2" value="" style="verticalLabelPosition=bottom;verticalAlign=top;html=1;shadow=0;dashed=0;strokeWidth=1;shape=mxgraph.android.phone2;strokeColor=#c0c0c0;" vertex="1" parent="1">
          <mxGeometry x="80" y="40" width="302.56" height="590" as="geometry" />
        </mxCell>
        <mxCell id="WXgXPa6lnhgTiTKDWKVF-3" value="" style="rounded=1;whiteSpace=wrap;html=1;" vertex="1" parent="1">
          <mxGeometry x="136.28" y="140" width="190" height="40" as="geometry" />
        </mxCell>
        <mxCell id="WXgXPa6lnhgTiTKDWKVF-4" value="What do you want to do?" style="text;html=1;strokeColor=none;fillColor=none;align=center;verticalAlign=middle;whiteSpace=wrap;rounded=0;" vertex="1" parent="1">
          <mxGeometry x="144.28" y="120" width="174" height="20" as="geometry" />
        </mxCell>
        <mxCell id="WXgXPa6lnhgTiTKDWKVF-5" value="When?" style="text;html=1;strokeColor=none;fillColor=none;align=center;verticalAlign=middle;whiteSpace=wrap;rounded=0;" vertex="1" parent="1">
          <mxGeometry x="211.28" y="200" width="40" height="20" as="geometry" />
        </mxCell>
        <mxCell id="WXgXPa6lnhgTiTKDWKVF-6" value="" style="rounded=1;whiteSpace=wrap;html=1;" vertex="1" parent="1">
          <mxGeometry x="139.42" y="220" width="183.72" height="40" as="geometry" />
        </mxCell>
        <mxCell id="WXgXPa6lnhgTiTKDWKVF-7" value="Add Item" style="rounded=1;html=1;shadow=0;dashed=0;whiteSpace=wrap;fontSize=10;fillColor=#666666;align=center;strokeColor=#4D4D4D;fontColor=#ffffff;" vertex="1" parent="1">
          <mxGeometry x="179" y="290" width="105.5" height="16.88" as="geometry" />
        </mxCell>
        <mxCell id="WXgXPa6lnhgTiTKDWKVF-8" value="" style="strokeWidth=1;html=1;shadow=0;dashed=0;shape=mxgraph.android.rrect;rSize=0;strokeColor=#eeeeee;fillColor=#ffffff;gradientColor=none;" vertex="1" parent="1">
          <mxGeometry x="140" y="380" width="185" height="50" as="geometry" />
        </mxCell>
        <mxCell id="WXgXPa6lnhgTiTKDWKVF-9" value="&lt;font style=&quot;font-size: 14px&quot;&gt;Item 1&lt;/font&gt;" style="strokeColor=inherit;fillColor=inherit;gradientColor=inherit;strokeWidth=1;html=1;shadow=0;dashed=0;shape=mxgraph.android.rrect;rSize=0;align=left;spacingLeft=10;fontSize=8;fontColor=#333333;" vertex="1" parent="WXgXPa6lnhgTiTKDWKVF-8">
          <mxGeometry width="185" height="12.5" as="geometry" />
        </mxCell>
        <mxCell id="WXgXPa6lnhgTiTKDWKVF-10" value="&lt;font style=&quot;font-size: 14px&quot;&gt;Item 2&lt;/font&gt;" style="strokeColor=inherit;fillColor=inherit;gradientColor=inherit;strokeWidth=1;html=1;shadow=0;dashed=0;shape=mxgraph.android.rrect;rSize=0;align=left;spacingLeft=10;fontSize=8;fontColor=#333333;" vertex="1" parent="WXgXPa6lnhgTiTKDWKVF-8">
          <mxGeometry y="12.5" width="185" height="12.5" as="geometry" />
        </mxCell>
        <mxCell id="WXgXPa6lnhgTiTKDWKVF-11" value="&lt;font style=&quot;font-size: 14px&quot;&gt;Item 3&lt;/font&gt;" style="strokeColor=inherit;fillColor=inherit;gradientColor=inherit;strokeWidth=1;html=1;shadow=0;dashed=0;shape=mxgraph.android.rrect;rSize=0;align=left;spacingLeft=10;fontSize=8;fontColor=#333333;" vertex="1" parent="WXgXPa6lnhgTiTKDWKVF-8">
          <mxGeometry y="25" width="185" height="12.5" as="geometry" />
        </mxCell>
        <mxCell id="WXgXPa6lnhgTiTKDWKVF-12" value="&lt;font style=&quot;font-size: 14px&quot;&gt;Item 4&lt;/font&gt;" style="strokeColor=inherit;fillColor=inherit;gradientColor=inherit;strokeWidth=1;html=1;shadow=0;dashed=0;shape=mxgraph.android.rrect;rSize=0;align=left;spacingLeft=10;fontSize=8;fontColor=#333333;" vertex="1" parent="WXgXPa6lnhgTiTKDWKVF-8">
          <mxGeometry y="37.5" width="185" height="12.5" as="geometry" />
        </mxCell>
        <mxCell id="WXgXPa6lnhgTiTKDWKVF-16" value="" style="html=1;shadow=0;dashed=0;shape=mxgraph.bootstrap.checkbox2;labelPosition=right;verticalLabelPosition=middle;align=left;verticalAlign=middle;gradientColor=#DEDEDE;fillColor=#EDEDED;checked=0;spacing=5;checkedFill=#0085FC;checkedStroke=#ffffff;" vertex="1" parent="WXgXPa6lnhgTiTKDWKVF-8">
          <mxGeometry x="175" y="3" width="10" height="10" as="geometry" />
        </mxCell>
        <mxCell id="WXgXPa6lnhgTiTKDWKVF-17" value="" style="html=1;shadow=0;dashed=0;shape=mxgraph.bootstrap.checkbox2;labelPosition=right;verticalLabelPosition=middle;align=left;verticalAlign=middle;gradientColor=#DEDEDE;fillColor=#EDEDED;checked=0;spacing=5;checkedFill=#0085FC;checkedStroke=#ffffff;" vertex="1" parent="WXgXPa6lnhgTiTKDWKVF-8">
          <mxGeometry x="175" y="15" width="10" height="10" as="geometry" />
        </mxCell>
        <mxCell id="WXgXPa6lnhgTiTKDWKVF-18" value="" style="html=1;shadow=0;dashed=0;shape=mxgraph.bootstrap.checkbox2;labelPosition=right;verticalLabelPosition=middle;align=left;verticalAlign=middle;gradientColor=#DEDEDE;fillColor=#EDEDED;checked=0;spacing=5;checkedFill=#0085FC;checkedStroke=#ffffff;" vertex="1" parent="WXgXPa6lnhgTiTKDWKVF-8">
          <mxGeometry x="175" y="27.5" width="10" height="10" as="geometry" />
        </mxCell>
        <mxCell id="WXgXPa6lnhgTiTKDWKVF-19" value="" style="html=1;shadow=0;dashed=0;shape=mxgraph.bootstrap.checkbox2;labelPosition=right;verticalLabelPosition=middle;align=left;verticalAlign=middle;gradientColor=#DEDEDE;fillColor=#EDEDED;checked=0;spacing=5;checkedFill=#0085FC;checkedStroke=#ffffff;" vertex="1" parent="WXgXPa6lnhgTiTKDWKVF-8">
          <mxGeometry x="175" y="40" width="10" height="10" as="geometry" />
        </mxCell>
        <mxCell id="WXgXPa6lnhgTiTKDWKVF-13" value="Show Items Due By ..." style="html=1;shadow=0;dashed=0;shape=mxgraph.bootstrap.rrect;rSize=5;fillColor=#ffffff;strokeColor=#CED4DA;align=left;spacing=15;fontSize=14;fontColor=#6C767D;" vertex="1" parent="1">
          <mxGeometry x="120" y="320" width="230" height="40" as="geometry" />
        </mxCell>
        <mxCell id="WXgXPa6lnhgTiTKDWKVF-14" value="" style="shape=triangle;direction=south;fillColor=#343A40;strokeColor=none;perimeter=none;" vertex="1" parent="WXgXPa6lnhgTiTKDWKVF-13">
          <mxGeometry x="1" y="0.5" width="7" height="3" relative="1" as="geometry">
            <mxPoint x="-17" y="1" as="offset" />
          </mxGeometry>
        </mxCell>
        <mxCell id="WXgXPa6lnhgTiTKDWKVF-15" value="" style="shape=triangle;direction=north;fillColor=#343A40;strokeColor=none;perimeter=none;" vertex="1" parent="WXgXPa6lnhgTiTKDWKVF-13">
          <mxGeometry x="1" y="0.5" width="7" height="3" relative="1" as="geometry">
            <mxPoint x="-17" y="-4" as="offset" />
          </mxGeometry>
        </mxCell>
      </root>
    </mxGraphModel>
  </diagram>
</mxfile>
